<svg xmlns="http://www.w3.org/2000/svg" width="56" height="56">
    <path fill="#B0B429" fill-rule="evenodd" d="M48.969 55.813H6.501a6.264 6.264 0 0 1-6.257-6.257V7.088A6.264 6.264 0 0 1 6.501.831h42.468a6.264 6.264 0 0 1 6.257 6.257v42.468a6.264 6.264 0 0 1-6.257 6.257zm3.18-48.725a3.184 3.184 0 0 0-3.18-3.18H6.501a3.184 3.184 0 0 0-3.18 3.18v42.468a3.184 3.184 0 0 0 3.18 3.18h42.468a3.184 3.184 0 0 0 3.18-3.18V7.088zM40.775 33.732c0 1.902-2.437 3.44-5.441 3.44s-5.435-1.538-5.435-3.44 2.431-3.447 5.435-3.447c1.126 0 2.166.216 3.034.591l-.012-10.057L21.43 25.25l.019 13.412c0 1.902-2.438 3.44-5.435 3.44-3.004 0-5.441-1.538-5.441-3.44s2.437-3.441 5.441-3.441c1.114 0 2.148.216 3.009.585l-.018-15.566 21.764-5.693.024 19.056-.024.006c.006.043.006.08.006.123z"/>
</svg>
