<svg xmlns="http://www.w3.org/2000/svg" width="16" height="16">
    <path fill-rule="evenodd" d="M15.476 6.139v3.223h-1.837c-.117.428-.29.845-.517 1.243l1.296 1.295-2.279 2.278-1.294-1.293a5.202 5.202 0 0 1-1.246.515v1.836H6.374V13.4a5.202 5.202 0 0 1-1.246-.515l-1.294 1.293L1.555 11.9l1.296-1.295a5.407 5.407 0 0 1-.517-1.243H.508V6.139h1.826a5.4 5.4 0 0 1 .517-1.242L1.555 3.601l2.279-2.277 1.294 1.292a5.16 5.16 0 0 1 1.246-.514V.266h3.225v1.836c.443.119.86.291 1.246.514l1.294-1.292 2.279 2.277-1.296 1.296c.227.398.4.814.517 1.242h1.837zm-2.409.394a4.72 4.72 0 0 0-.628-1.514l-.138-.219L13.5 3.601l-1.361-1.36-1.203 1.201-.22-.144a4.548 4.548 0 0 0-1.51-.625l-.255-.055V.915H7.023v1.703l-.255.055a4.544 4.544 0 0 0-1.511.625l-.22.144-1.203-1.201-1.361 1.36L3.672 4.8l-.138.219a4.72 4.72 0 0 0-.628 1.514l-.056.254H1.157v1.927H2.85l.056.255c.115.526.326 1.035.628 1.513l.138.219L2.473 11.9l1.361 1.361 1.203-1.202.22.144c.452.295.96.505 1.511.625l.255.056v1.703h1.928v-1.703l.255-.056c.55-.12 1.058-.33 1.51-.625l.22-.144 1.203 1.202L13.5 11.9l-1.199-1.199.138-.219c.302-.478.513-.987.628-1.513l.056-.255h1.704V6.787h-1.704l-.056-.254zM7.992 10.58a2.833 2.833 0 0 1-2.831-2.829c0-1.56 1.27-2.829 2.831-2.829a2.833 2.833 0 0 1 2.831 2.829c0 1.56-1.27 2.829-2.831 2.829zm0-5.01A2.184 2.184 0 0 0 5.81 7.751c0 1.202.979 2.181 2.182 2.181a2.184 2.184 0 0 0 2.182-2.181A2.184 2.184 0 0 0 7.992 5.57z"/>
</svg>
