<svg xmlns="http://www.w3.org/2000/svg" width="56" height="56">
  <path fill="#00C6DA" fill-rule="evenodd" d="M48.969 55.813H6.501a6.264 6.264 0 0 1-6.257-6.257V7.088A6.264 6.264 0 0 1 6.501.831h42.468a6.264 6.264 0 0 1 6.257 6.257v42.468a6.263 6.263 0 0 1-6.257 6.257zm3.18-48.725a3.184 3.184 0 0 0-3.18-3.18H6.501a3.184 3.184 0 0 0-3.18 3.18v42.468a3.184 3.184 0 0 0 3.18 3.18h42.468a3.184 3.184 0 0 0 3.18-3.18V7.088zM38.617 34.126h5.414v5.415h-5.414v-5.415zm0-8.511h5.414v5.415h-5.414v-5.415zm0-8.511h5.414v5.414h-5.414v-5.414zm-9.059 17.022h5.414v5.415h-5.414v-5.415zm0-8.511h5.414v5.415h-5.414v-5.415zm0-8.511h5.414v5.414h-5.414v-5.414zm-9.06 17.022h5.415v5.415h-5.415v-5.415zm0-8.511h5.415v5.415h-5.415v-5.415zm0-8.511h5.415v5.414h-5.415v-5.414zm-9.059 17.022h5.415v5.415h-5.415v-5.415zm0-8.511h5.415v5.415h-5.415v-5.415zm0-8.511h5.415v5.414h-5.415v-5.414z"/>
</svg>
