<svg xmlns="http://www.w3.org/2000/svg" width="18" height="17">
    <path fill-rule="evenodd" d="M17.933 5.869l-7.464 7.15.125.12-.438.179-.227.218-.09-.087-6.44 2.64h8.124v.731H1.616l-.381.156.069-.156H.968v-.731h.663l3.286-7.355-.148-.141.368-.352.103-.231.069.066 7.464-7.15 1.421 1.362v-.001l2.317 2.22 1.422 1.362zm-8.004 6.633l6.924-6.633-.882-.845-6.924 6.633.882.845zm4.265-9.181L7.27 9.955l1.237 1.185 6.925-6.633-1.238-1.186zM2.687 15.584l2.088-.857-1.193-1.143-.895 2zm1.218-2.725l1.627 1.559 3.725-1.527h-.001l-3.758-3.6-1.593 3.568zM12.773 1.96L5.849 8.593l.882.845 6.924-6.634-.882-.844z"/>
</svg>
