<svg xmlns="http://www.w3.org/2000/svg" width="56" height="56">
    <path fill="#22B573" fill-rule="evenodd" d="M48.969 55.813H6.501a6.264 6.264 0 0 1-6.257-6.257V7.088A6.264 6.264 0 0 1 6.501.831h42.468a6.264 6.264 0 0 1 6.257 6.257v42.468a6.264 6.264 0 0 1-6.257 6.257zm3.18-48.725a3.184 3.184 0 0 0-3.18-3.18H6.501a3.184 3.184 0 0 0-3.18 3.18v42.468a3.184 3.184 0 0 0 3.18 3.18h42.468a3.184 3.184 0 0 0 3.18-3.18V7.088zm-17.154 5.747h6.185v31.106h-6.185V12.835zm-10.551 6.412h6.185v24.694h-6.185V19.247zm-10.551 7.231h6.185v17.463h-6.185V26.478z"/>
</svg>
