<svg xmlns="http://www.w3.org/2000/svg" width="17" height="17">
    <path fill-rule="evenodd" d="M8.939 16.337c-4.396 0-7.972-3.576-7.972-7.971C.967 3.97 4.543.394 8.939.394c4.395 0 7.971 3.576 7.971 7.972 0 4.395-3.576 7.971-7.971 7.971zm0-15.171c-3.97 0-7.2 3.23-7.2 7.2s3.23 7.2 7.2 7.2 7.2-3.23 7.2-7.2-3.23-7.2-7.2-7.2zM7.33 12.557c.695-.166.764-.194.764-1.263V8.488c0-.806-.069-.819-.611-1.056v-.194a10.05 10.05 0 0 0 2.222-.5 50.6 50.6 0 0 0-.027 1.625v2.931c0 1.027.083 1.069.805 1.263v.223H7.33v-.223zm1.445-7.014c-.459 0-.834-.375-.834-.875 0-.514.375-.875.848-.875.513 0 .875.361.875.875 0 .5-.362.875-.889.875z"/>
</svg>
