<svg xmlns="http://www.w3.org/2000/svg" width="56" height="56">
    <path fill="#FBB03B" fill-rule="evenodd" d="M48.969 55.813H6.501a6.264 6.264 0 0 1-6.257-6.257V7.088A6.264 6.264 0 0 1 6.501.831h42.468a6.264 6.264 0 0 1 6.257 6.257v42.468a6.263 6.263 0 0 1-6.257 6.257zm3.18-48.725a3.184 3.184 0 0 0-3.18-3.18H6.501a3.184 3.184 0 0 0-3.18 3.18v42.468a3.184 3.184 0 0 0 3.18 3.18h42.468a3.184 3.184 0 0 0 3.18-3.18V7.088zM28.722 46.89H9.9c.133-.736.381-1.432.741-2.015l10.478-16.963c1.146-1.855 3.003-1.855 4.145 0l7.594 12.29 2.284-3.695c1.108-1.794 2.899-1.794 4.008 0l6.42 10.383H28.722zm5.939-23.236a3.59 3.59 0 1 1-.001-7.18 3.59 3.59 0 0 1 .001 7.18z"/>
</svg>
