<svg xmlns="http://www.w3.org/2000/svg" width="15" height="16">
    <path fill-rule="evenodd" d="M14.998 2.997h-1.479v1.441h-.751V2.997h-1.48v-.73h1.48V.827h.751v1.44h1.479v.73zm-3.335 12.821h-.75v-3.349c0-1.41-1.178-2.556-2.626-2.556H3.375c-1.447 0-2.626 1.146-2.626 2.556v3.349h-.75v-3.349c0-1.812 1.515-3.287 3.376-3.287h4.912c1.862 0 3.376 1.475 3.376 3.287v3.349zM5.831 8.11c-2.08 0-3.772-1.648-3.772-3.672 0-2.025 1.692-3.672 3.772-3.672s3.772 1.647 3.772 3.672c0 2.024-1.692 3.672-3.772 3.672zm0-6.614c-1.666 0-3.022 1.32-3.022 2.942s1.356 2.941 3.022 2.941c1.667 0 3.022-1.319 3.022-2.941 0-1.622-1.355-2.942-3.022-2.942z"/>
</svg>
