<svg xmlns="http://www.w3.org/2000/svg" width="56" height="56">
    <path fill="#D81A60" fill-rule="evenodd" d="M48.969 55.813H6.501a6.264 6.264 0 0 1-6.257-6.257V7.088A6.264 6.264 0 0 1 6.501.831h42.468a6.264 6.264 0 0 1 6.257 6.257v42.468a6.263 6.263 0 0 1-6.257 6.257zm3.18-48.725a3.184 3.184 0 0 0-3.18-3.18H6.501a3.184 3.184 0 0 0-3.18 3.18v42.468a3.184 3.184 0 0 0 3.18 3.18h42.468a3.184 3.184 0 0 0 3.18-3.18V7.088zM27.734 43.226c-8.229 0-14.901-6.672-14.901-14.901 0-8.235 6.672-14.901 14.901-14.901s14.901 6.666 14.901 14.901c0 8.229-6.672 14.901-14.901 14.901zm6.462-16.114l-8.998-5.459a1.414 1.414 0 0 0-2.142 1.213v10.912c0 1.102 1.2 1.785 2.142 1.213l8.998-5.46a1.412 1.412 0 0 0 0-2.419z"/>
</svg>
