<svg xmlns="http://www.w3.org/2000/svg" width="21" height="11">
    <path fill-rule="evenodd" d="M20.192 6.12C18.324 2.71 14.367.673 10.11.916c-3.979.233-7.166 2.395-8.525 5.785L.88 6.427C2.349 2.76 5.783.422 10.065.171c4.557-.268 8.787 1.931 10.794 5.595l-.667.354zm-9.095-4.904c2.717 0 4.927 2.176 4.927 4.849 0 2.674-2.21 4.849-4.927 4.849-2.717 0-4.927-2.175-4.927-4.849 0-2.673 2.21-4.849 4.927-4.849zm0 8.952c2.299 0 4.169-1.841 4.169-4.103 0-2.262-1.87-4.103-4.169-4.103-2.298 0-4.169 1.841-4.169 4.103 0 2.262 1.871 4.103 4.169 4.103zm0-5.968c1.047 0 1.896.835 1.896 1.865s-.849 1.865-1.896 1.865c-1.046 0-1.895-.835-1.895-1.865S10.051 4.2 11.097 4.2z"/>
</svg>
