<svg xmlns="http://www.w3.org/2000/svg" width="56" height="56">
    <path fill="#0071BC" fill-rule="evenodd" d="M48.969 55.813H6.501a6.264 6.264 0 0 1-6.257-6.257V7.088A6.264 6.264 0 0 1 6.501.831h42.468a6.264 6.264 0 0 1 6.257 6.257v42.468a6.263 6.263 0 0 1-6.257 6.257zm3.18-48.725a3.184 3.184 0 0 0-3.18-3.18H6.501a3.184 3.184 0 0 0-3.18 3.18v42.468a3.184 3.184 0 0 0 3.18 3.18h42.468a3.184 3.184 0 0 0 3.18-3.18V7.088zM13.972 34.083h28.436v3.652H13.972v-3.652zm0-7.009h28.436v3.651H13.972v-3.651zm0-7.01h28.436v3.651H13.972v-3.651zm0-7.01h28.436v3.652H13.972v-3.652zm17.685 31.69H13.972v-3.651h17.685v3.651z"/>
</svg>
